<svg width="100%" height="100%" viewBox="0 0 513 512" version="1.1" xmlns="http://www.w3.org/2000/svg" xmlns:xlink="http://www.w3.org/1999/xlink" xml:space="preserve" xmlns:serif="http://www.serif.com/" style="fill-rule:evenodd;clip-rule:evenodd;stroke-linejoin:round;stroke-miterlimit:1.41421;">
  <g transform="matrix(1,0,0,1,0,28)">
    <path d="M256,455.516C248.711,455.516 241.684,452.875 236.207,448.078C215.523,429.992 195.582,412.996 177.988,398.004L177.898,397.926C126.316,353.969 81.773,316.008 50.781,278.613C16.137,236.809 0,197.172 0,153.871C0,111.801 14.426,72.988 40.617,44.578C67.121,15.832 103.488,0 143.031,0C172.586,0 199.652,9.344 223.477,27.77C235.5,37.07 246.398,48.453 256,61.73C265.605,48.453 276.5,37.07 288.527,27.77C312.352,9.344 339.418,0 368.973,0C408.512,0 444.883,15.832 471.387,44.578C497.578,72.988 512,111.801 512,153.871C512,197.172 495.867,236.809 461.223,278.609C430.23,316.008 385.691,353.965 334.117,397.918C316.492,412.934 296.52,429.957 275.789,448.086C270.316,452.875 263.285,455.516 256,455.516ZM143.031,29.992C111.965,29.992 83.426,42.391 62.664,64.906C41.594,87.762 29.988,119.355 29.988,153.871C29.988,190.289 43.523,222.859 73.871,259.477C103.203,294.871 146.832,332.051 197.348,375.102L197.441,375.18C215.102,390.23 235.121,407.293 255.957,425.512C276.918,407.258 296.969,390.168 314.664,375.094C365.176,332.043 408.801,294.871 438.133,259.477C468.477,222.859 482.012,190.289 482.012,153.871C482.012,119.355 470.406,87.762 449.336,64.906C428.578,42.391 400.035,29.992 368.973,29.992C346.215,29.992 325.32,37.227 306.871,51.492C290.43,64.211 278.977,80.289 272.262,91.539C268.809,97.324 262.73,100.777 256,100.777C249.27,100.777 243.191,97.324 239.738,91.539C233.027,80.289 221.574,64.211 205.129,51.492C186.68,37.227 165.785,29.992 143.031,29.992Z" style="fill:rgb(251,51,101);fill-rule:nonzero;"/>
  </g>
</svg>