<svg width="100%" height="100%" viewBox="0 0 512 512" version="1.1" xmlns="http://www.w3.org/2000/svg" xmlns:xlink="http://www.w3.org/1999/xlink" xml:space="preserve" xmlns:serif="http://www.serif.com/" style="fill-rule:evenodd;clip-rule:evenodd;stroke-linejoin:round;stroke-miterlimit:1.41421;">
  <g>
    <path d="M18.842,128.478C6.28,141.041 0,156.078 0,173.586L0,411.126C0,428.638 6.28,443.675 18.842,456.237C31.405,468.799 46.442,475.08 63.953,475.08L73.089,475.08L73.089,109.632L63.953,109.632C46.438,109.632 31.402,115.916 18.842,128.478Z" style="fill:rgb(144,12,63);fill-rule:nonzero;"/>
    <path d="M365.446,63.953C365.446,56.339 362.783,49.869 357.452,44.539C352.127,39.209 345.652,36.546 338.041,36.546L173.589,36.546C165.977,36.546 159.506,39.209 154.175,44.539C148.845,49.866 146.181,56.338 146.181,63.953L146.181,109.632L100.5,109.632L100.5,475.08L411.125,475.08L411.125,109.632L365.446,109.632L365.446,63.953ZM182.725,73.089L328.904,73.089L328.904,109.632L182.725,109.632L182.725,73.089ZM365.446,319.765C365.446,322.435 364.591,324.618 362.879,326.336C361.168,328.043 358.979,328.902 356.316,328.902L292.363,328.902L292.363,392.855C292.363,395.517 291.501,397.708 289.79,399.418C288.086,401.129 285.895,401.985 283.229,401.985L228.41,401.985C225.743,401.985 223.556,401.129 221.843,399.418C220.132,397.707 219.275,395.517 219.275,392.855L219.275,328.902L155.322,328.902C152.654,328.902 150.468,328.043 148.755,326.336C147.041,324.617 146.185,322.435 146.185,319.765L146.185,264.95C146.185,262.28 147.041,260.091 148.755,258.379C150.464,256.67 152.654,255.815 155.317,255.815L219.27,255.815L219.27,191.86C219.27,189.194 220.126,187.007 221.84,185.293C223.553,183.58 225.739,182.725 228.407,182.725L283.225,182.725C285.89,182.725 288.08,183.58 289.788,185.293C291.499,187.007 292.361,189.194 292.361,191.86L292.361,255.814L356.314,255.814C358.977,255.814 361.167,256.669 362.877,258.378C364.585,260.09 365.44,262.279 365.44,264.949L365.44,319.764L365.446,319.764L365.446,319.765Z" style="fill:rgb(144,12,63);fill-rule:nonzero;"/>
    <path d="M492.785,128.478C480.222,115.916 465.184,109.632 447.674,109.632L438.537,109.632L438.537,475.08L447.674,475.08C465.185,475.08 480.222,468.8 492.785,456.237C505.344,443.675 511.627,428.637 511.627,411.126L511.627,173.586C511.626,156.078 505.343,141.041 492.785,128.478Z" style="fill:rgb(144,12,63);fill-rule:nonzero;"/>
  </g>
</svg>