<svg width="100%" height="100%" viewBox="0 0 792 792" version="1.1" xmlns="http://www.w3.org/2000/svg" xmlns:xlink="http://www.w3.org/1999/xlink" xml:space="preserve" xmlns:serif="http://www.serif.com/" style="fill-rule:evenodd;clip-rule:evenodd;stroke-linejoin:round;stroke-miterlimit:1.41421;">
  <g>
    <path d="M395.904,475.016L159.701,402.316L159.701,523.736C159.701,579.869 265.488,625.38 395.975,625.38C526.455,625.38 632.26,579.869 632.26,523.736C632.26,523.294 632.115,522.85 632.106,522.418L632.106,402.316L395.904,475.016Z" style="fill:rgb(212,17,92);fill-rule:nonzero;"/>
    <path d="M0,318.734L84.383,348.919L91.574,333.518L122.574,330.883L126.994,335.482L100.393,341.79L96.516,353.265C96.509,353.265 36.429,478.869 45.253,540.315C45.253,540.315 82.755,562.685 120.241,540.315L130.203,372.315L130.203,358.331L186.003,345.743L182.062,355.448L140.458,368.977L159.7,375.851L395.903,448.551L632.104,375.851L791.803,318.735L395.903,166.422L0,318.734Z" style="fill:rgb(212,17,92);fill-rule:nonzero;"/>
  </g>
</svg>