<svg width="100%" height="100%" viewBox="0 0 50 50" version="1.1" xmlns="http://www.w3.org/2000/svg" xmlns:xlink="http://www.w3.org/1999/xlink" xml:space="preserve" xmlns:serif="http://www.serif.com/" style="fill-rule:evenodd;clip-rule:evenodd;stroke-linejoin:round;stroke-miterlimit:1.41421;">
  <path d="M48.856,22.731C49.839,21.773 50.186,20.367 49.762,19.06C49.337,17.753 48.23,16.82 46.87,16.622L34.778,14.865C34.263,14.79 33.818,14.467 33.588,14L28.182,3.043C27.575,1.812 26.343,1.047 24.97,1.047C23.598,1.047 22.366,1.812 21.759,3.043L16.352,14C16.122,14.467 15.676,14.79 15.161,14.865L3.069,16.623C1.71,16.82 0.603,17.753 0.178,19.06C-0.246,20.367 0.101,21.773 1.084,22.731L9.833,31.259C10.206,31.623 10.377,32.147 10.289,32.659L8.224,44.702C7.992,46.055 8.537,47.396 9.648,48.204C10.758,49.013 12.203,49.118 13.42,48.477L24.234,42.791C24.695,42.549 25.245,42.549 25.706,42.791L36.521,48.477C37.049,48.755 37.621,48.892 38.19,48.892C38.929,48.892 39.665,48.661 40.293,48.204C41.404,47.396 41.949,46.055 41.717,44.702L39.651,32.66C39.563,32.147 39.734,31.624 40.107,31.26L48.856,22.731Z" style="fill:rgb(246,187,66);fill-rule:nonzero;"/>
</svg>