<svg width="100%" height="100%" viewBox="0 0 1024 1024" version="1.1" xmlns="http://www.w3.org/2000/svg" xmlns:xlink="http://www.w3.org/1999/xlink" xml:space="preserve" xmlns:serif="http://www.serif.com/" style="fill-rule:evenodd;clip-rule:evenodd;stroke-linejoin:round;stroke-miterlimit:1.41421;">
  <path d="M512,0C794.58,0 1024,229.42 1024,512C1024,794.58 794.58,1024 512,1024C229.42,1024 0,794.58 0,512C0,229.42 229.42,0 512,0ZM170.077,538.923L175.462,547L385.462,773.154C390.846,778.538 396.231,781.231 404.308,781.231C412.385,781.231 417.769,778.538 423.154,773.154L853.923,326.231C864.692,315.462 864.692,299.308 853.923,288.538L816.231,250.846C805.462,240.077 786.615,240.077 775.846,250.846L415.077,625.077C409.692,630.462 401.615,630.462 396.231,625.077L248.154,466.231L245.462,463.538C234.692,452.769 218.538,452.769 207.769,463.538L170.077,501.231C164.692,506.615 162,514.692 162,520.077C162,525.462 164.692,533.538 170.077,538.923Z" style="fill:rgb(140,193,82);"/>
</svg>